<svg id="Layer_1" data-name="Layer 1" xmlns="http://www.w3.org/2000/svg" viewBox="0 0 224.23 61"><title>nancy-bilodeau-logo-white</title><circle cx="89.66" cy="27.5" r="26.5" style="fill:none;stroke:#c4e0ec;stroke-width:2px"/><circle cx="89.66" cy="33.5" r="26.5" style="fill:none;stroke:#c4e0ec;stroke-width:2px"/><path d="M1.84,43.48q0.68-2.52,3-10,2.44-7.88,5.52-18.24a6.36,6.36,0,0,0,.28-1.64q0-.92-0.6-0.92a3.12,3.12,0,0,0-2.32,1.2A9.53,9.53,0,0,0,6,16.76a8.64,8.64,0,0,0-.64,3,4.43,4.43,0,0,0,.2,1.4,2.51,2.51,0,0,1-1.84-.6,2.46,2.46,0,0,1-.56-1.68A6,6,0,0,1,4.48,15.4a11.54,11.54,0,0,1,3.24-3,6.68,6.68,0,0,1,3.44-1.2,2.64,2.64,0,0,1,2.36,1.68A13.14,13.14,0,0,1,14.88,17q0.44,2.48.92,6.64,0.84,7.48,1.76,13.44,0.52-3.4,1.84-8.6t2.76-9.8Q23.6,14.08,24,13.16a3.82,3.82,0,0,1,1-1.28,2.2,2.2,0,0,1,1.52-.68Q25.08,15,23.2,21.6T20,34.4a50.37,50.37,0,0,0-1.4,9.08,2.76,2.76,0,0,1-2-.76,4.48,4.48,0,0,1-1.08-2.48q-0.52-2.8-1.72-10.64T11.8,16.44Q8.08,29.84,6.6,34.72a41,41,0,0,1-2.52,6.8Q3.08,43.48,1.84,43.48Zm24.73-1.6A2.73,2.73,0,0,1,24.45,41a3.3,3.3,0,0,1-.84-2.44,10.81,10.81,0,0,1,1.68-5.28,17.58,17.58,0,0,1,4.32-5,8.29,8.29,0,0,1,5.08-2,4,4,0,0,1,2.6.84,2.65,2.65,0,0,1,1,2.16,1.56,1.56,0,0,1-.52,1.32,2.31,2.31,0,0,1-1.44.4,5.22,5.22,0,0,0,.2-1.4,2.49,2.49,0,0,0-.48-1.6,1.73,1.73,0,0,0-1.48-.64,5.51,5.51,0,0,0-3.72,2A17.6,17.6,0,0,0,27.65,34a11.38,11.38,0,0,0-1.28,4.68q0,1.56,1.08,1.56,1.6,0,3.76-2.52a76.39,76.39,0,0,0,4.64-6.2,3.22,3.22,0,0,1,1,.36,0.74,0.74,0,0,1,.56.64,2.59,2.59,0,0,1-.4,1q-0.36.68-.44,0.8a19.84,19.84,0,0,0-1.08,2.08,4,4,0,0,0-.4,1.64,2.46,2.46,0,0,0,.32,1.24,1.19,1.19,0,0,0,1,.52,4.9,4.9,0,0,0,2.92-1.64,20.68,20.68,0,0,0,3.48-4.68l0.4,0.4a15.13,15.13,0,0,1-2.16,3.8,11,11,0,0,1-2.84,2.56,5.65,5.65,0,0,1-2.92.92,2.76,2.76,0,0,1-2.16-.84,2.82,2.82,0,0,1-.72-2,6.35,6.35,0,0,1,.12-1.16,18.8,18.8,0,0,1-3.24,3.52A4.48,4.48,0,0,1,26.57,41.88ZM55,40.8a2.82,2.82,0,0,1-2.08-.72,2.41,2.41,0,0,1-.72-1.84,5.32,5.32,0,0,1,.16-1.2q0.2-.72.4-1.4a12.66,12.66,0,0,0,.4-1.52,6,6,0,0,0,.2-1.44q0-2-1.6-2a4.81,4.81,0,0,0-3.2,1.6,22.57,22.57,0,0,0-3,3.56q-1.28,2-2.92,4.72a3.12,3.12,0,0,1-1.24-.24,1.81,1.81,0,0,1-.88-0.64,7.42,7.42,0,0,1,.52-1.44q1-2.56,1.64-4.64a14.44,14.44,0,0,0,.68-3.76,2.36,2.36,0,0,1,.8-0.56,2.18,2.18,0,0,1,1-.28,0.94,0.94,0,0,1,1.08,1A11,11,0,0,1,46,32.2q-0.36,1.48-.92,3.16a27.17,27.17,0,0,1,4.08-5,6.3,6.3,0,0,1,4.24-2,2.46,2.46,0,0,1,2.2,1.08,4.15,4.15,0,0,1,.76,2.52,5.82,5.82,0,0,1-.24,1.68,12.78,12.78,0,0,1-.64,1.84q-0.36.88-.56,1.52a4.27,4.27,0,0,0-.2,1.28q0,1.52,1.2,1.52a3.87,3.87,0,0,0,2.8-1.8,23.6,23.6,0,0,0,2.8-4.44L61.91,34Q59,40.8,55,40.8Zm10,1.44a4.24,4.24,0,0,1-3.24-1.32,5.35,5.35,0,0,1-1.24-3.8A10.69,10.69,0,0,1,61.82,32a11.81,11.81,0,0,1,3.36-4,6.82,6.82,0,0,1,4.08-1.56,2.49,2.49,0,0,1,2.16.88,3.2,3.2,0,0,1,.68,2.08,3.79,3.79,0,0,1-.56,2.08,1.61,1.61,0,0,1-1.44.84,1.44,1.44,0,0,1-1.16-.6,2.37,2.37,0,0,0,1-1.24,4.76,4.76,0,0,0,.44-1.92,1.18,1.18,0,0,0-.2-0.76,0.84,0.84,0,0,0-.68-0.24,4.29,4.29,0,0,0-2.92,1.64A14.54,14.54,0,0,0,64,33.16a10.48,10.48,0,0,0-1,4.24,4,4,0,0,0,.68,2.4,2.6,2.6,0,0,0,2.24.92,7.41,7.41,0,0,0,4.8-2,12.78,12.78,0,0,0,3.68-5.24l0.52,0.4a15.18,15.18,0,0,1-2.52,4.32,12.78,12.78,0,0,1-3.56,3A7.77,7.77,0,0,1,65,42.24Zm10.37,9a2.84,2.84,0,0,1-1.8-.56,1.86,1.86,0,0,1-.72-1.56,4.4,4.4,0,0,1,1-2.84,11,11,0,0,1,2.52-2.12q1.48-.88,4.24-2.28a59.27,59.27,0,0,0,2.24-7.32A18,18,0,0,1,80,38.24a4.32,4.32,0,0,1-3,1.36,3.3,3.3,0,0,1-2.24-.84,3,3,0,0,1-1-2.4,12.35,12.35,0,0,1,.64-3.52,20.25,20.25,0,0,1,1.48-3.64q0.84-1.56,1.4-1.56a2.73,2.73,0,0,1,1,.32,0.89,0.89,0,0,1,.72.6,17,17,0,0,0-1.72,3.76,12.89,12.89,0,0,0-.92,4.08A1.35,1.35,0,0,0,77.87,38a3.92,3.92,0,0,0,2.52-1.48,19.5,19.5,0,0,0,2.8-3.64,17.13,17.13,0,0,0,.4-1.84,3.52,3.52,0,0,1,.64-1.4,1.71,1.71,0,0,1,1.4-.64,3.53,3.53,0,0,1,.84.12,21.85,21.85,0,0,1-.92,4.44,62.29,62.29,0,0,1-2.2,6.76,11.8,11.8,0,0,0,3.76-2.48A12.83,12.83,0,0,0,90,33.52l0.52,0.4Q89,38.6,82.91,41.4a34.17,34.17,0,0,1-3.72,7Q77.27,51.2,75.35,51.2Zm-0.2-1.28a2.23,2.23,0,0,0,1.24-.76,11.13,11.13,0,0,0,1.8-2.32,27.12,27.12,0,0,0,2-4q-2.12,1.12-3.36,1.88a8.74,8.74,0,0,0-2,1.8,3.61,3.61,0,0,0-.76,2.24,1.39,1.39,0,0,0,.28.8A0.92,0.92,0,0,0,75.15,49.92Zm29.62-6.44a6,6,0,0,1-3.36-.76,2.77,2.77,0,0,1-1.08-2.44c0-.08.07-0.12,0.2-0.12a6.51,6.51,0,0,1,1,.2,13.26,13.26,0,0,0,2.8.2,23.56,23.56,0,0,0,8.08-1.32,14.85,14.85,0,0,0,5.76-3.56,6.66,6.66,0,0,0,2.08-4.6,3.92,3.92,0,0,0-2.88-4,20.69,20.69,0,0,0-7.2-1.08l-3,0q-0.6,2-1.72,6.12-0.84,3.12-1.88,6.76a2.56,2.56,0,0,1-1.68-.56,1.7,1.7,0,0,1-.68-1.36,4.4,4.4,0,0,1,.24-1.28l0.32-1q1.24-4.16,3.72-11.08a102.87,102.87,0,0,1,4.76-11.36,13.41,13.41,0,0,0-4.64,1.76,3.11,3.11,0,0,1-.88.4,1.39,1.39,0,0,1-.8-0.4,1.06,1.06,0,0,1-.48-0.68,43.5,43.5,0,0,1,4.64-1.64,18.43,18.43,0,0,1,4.84-.56,14.4,14.4,0,0,1,6.44,1.36q2.8,1.32,2.8,5a6,6,0,0,1-2.68,5.36A16,16,0,0,1,113,25.36q9.12,0.56,9.12,6.44a8.27,8.27,0,0,1-2.92,6.28,19.41,19.41,0,0,1-7,4A22.94,22.94,0,0,1,104.77,43.48Zm2.6-18.32a20.11,20.11,0,0,0,8.76-2,6.21,6.21,0,0,0,3.6-5.88q0-5.2-6.76-5.2a5.13,5.13,0,0,0-.76,0A77.69,77.69,0,0,0,107.37,25.16Zm24.22-2.44a2.12,2.12,0,0,1-1.2-.32,1.22,1.22,0,0,1-.44-1,1.78,1.78,0,0,1,1-1.44,3.5,3.5,0,0,1,2-.64,1.13,1.13,0,0,1,1.32,1.24,2,2,0,0,1-.84,1.48A2.66,2.66,0,0,1,131.59,22.72ZM126.79,41a2.8,2.8,0,0,1-2.28-1,3.53,3.53,0,0,1-.8-2.4,15.34,15.34,0,0,1,.88-4.32,22,22,0,0,1,2.24-4.84q1.36-2.08,2.64-2.08a0.81,0.81,0,0,1,.6.24,0.8,0.8,0,0,1,.28.64A8.2,8.2,0,0,1,129.07,30a40.21,40.21,0,0,0-2.12,4,8.13,8.13,0,0,0-.76,3.28,3.07,3.07,0,0,0,.44,1.92,2.08,2.08,0,0,0,1.52.48q3.12,0,6.16-6.12l0.36,0.4a11.46,11.46,0,0,1-3.32,5.24A6.86,6.86,0,0,1,126.79,41Zm10.09,0.16a2.8,2.8,0,0,1-2.44-1.12,5.26,5.26,0,0,1-.76-3q0-3.6,2.48-9.76a73.68,73.68,0,0,1,5.52-11.16q3.08-5,4.44-5a1.18,1.18,0,0,1,.92,1,5.06,5.06,0,0,1,.4,2,15.69,15.69,0,0,1-1.52,5.44A43.18,43.18,0,0,1,142,26.84a27,27,0,0,1-5.2,6,18.8,18.8,0,0,0-.52,4q0,3.08,1.76,3.08A4.11,4.11,0,0,0,141,38a20,20,0,0,0,2.76-4.52l0.6,0.32Q141,41.2,136.88,41.2Zm0.28-9.76a31.27,31.27,0,0,0,4.28-5.52,47.73,47.73,0,0,0,3.44-6.4,13.29,13.29,0,0,0,1.32-4.44c0-.43-0.09-0.64-0.28-0.64q-0.56,0-2.32,2.76A59.57,59.57,0,0,0,140,23.88,52.75,52.75,0,0,0,137.15,31.44Zm8.61,9.84a2.82,2.82,0,0,1-2.4-1,4.25,4.25,0,0,1-.76-2.64,9.71,9.71,0,0,1,.68-3.44,9.38,9.38,0,0,1,1.76-3,3,3,0,0,1,2.16-1.2,2.24,2.24,0,0,1,.84.2A5.9,5.9,0,0,0,146.89,32a22.08,22.08,0,0,0-1.2,2.92,8.65,8.65,0,0,0-.48,2.48q0,2.28,1.44,2.28a3.54,3.54,0,0,0,2-.88,12.6,12.6,0,0,0,2.28-2.32,6.24,6.24,0,0,1-1.76-2.4,8.12,8.12,0,0,1-.6-3.08,6,6,0,0,1,1-3.56,3.39,3.39,0,0,1,2.88-1.48,2.43,2.43,0,0,1,2.12.84,3.5,3.5,0,0,1,.64,2.24,9.5,9.5,0,0,1-.76,3.44,18.68,18.68,0,0,1-1.92,3.68,3.08,3.08,0,0,0,1.52.4,5,5,0,0,0,2.4-.68,4.53,4.53,0,0,0,1.88-2.2l0.48,0.4a5.42,5.42,0,0,1-2.16,2.6,5.53,5.53,0,0,1-2.88.84,4.41,4.41,0,0,1-1.92-.4,14.41,14.41,0,0,1-3.08,3A5.25,5.25,0,0,1,145.77,41.28Zm5.88-5.88a17.29,17.29,0,0,0,1.68-3.16,8.34,8.34,0,0,0,.64-3,3.15,3.15,0,0,0-.36-1.68,1,1,0,0,0-.84-0.56,1.74,1.74,0,0,0-1.16.56,4.17,4.17,0,0,0-1,1.48,5.55,5.55,0,0,0-.36,2,9,9,0,0,0,.32,2.4A5.53,5.53,0,0,0,151.65,35.4ZM160,41.2a2.93,2.93,0,0,1-2.08-.88,3.19,3.19,0,0,1-.92-2.48,10.63,10.63,0,0,1,1.68-5.12,18,18,0,0,1,4.2-5,7.78,7.78,0,0,1,4.88-2.08q1.76,0,1.76,1.24a3.3,3.3,0,0,1-.08.56,1.7,1.7,0,0,0-1.52-.6A5.47,5.47,0,0,0,164,28.72a15.55,15.55,0,0,0-3.08,4.44,10.79,10.79,0,0,0-1.16,4.2,2.42,2.42,0,0,0,.36,1.4,1.29,1.29,0,0,0,1.08.52,4.45,4.45,0,0,0,2.64-1.36A18.78,18.78,0,0,0,167,34a32.6,32.6,0,0,0,2.84-5.72q3.12-8.08,5.2-12.56t3.56-4.52a0.72,0.72,0,0,1,.56.28,0.86,0.86,0,0,1,.24.64,6.38,6.38,0,0,1-.64,2.08q-0.64,1.44-2.08,4.48-3,6.16-4.72,10.68a21.94,21.94,0,0,0-1.76,7.84,8.8,8.8,0,0,0,.12,1.8,0.75,0.75,0,0,0,.8.44,3.78,3.78,0,0,0,2-.72,10.8,10.8,0,0,0,2.28-2.08,14,14,0,0,0,1.92-3.12l0.48,0.36a13.28,13.28,0,0,1-2.08,3.64,11,11,0,0,1-2.84,2.56A5.24,5.24,0,0,1,170,41a2.31,2.31,0,0,1-2-.88,3.51,3.51,0,0,1-.64-2.12,19.24,19.24,0,0,1,.76-4.28,25,25,0,0,1-4.24,5.4Q161.74,41.2,160,41.2Zm20.87,0.56a4.84,4.84,0,0,1-3.64-1.32A4.57,4.57,0,0,1,176,37.12,10.31,10.31,0,0,1,177.52,32a15.47,15.47,0,0,1,3.92-4.56,7.65,7.65,0,0,1,4.68-1.88A2.17,2.17,0,0,1,188.6,28a5.55,5.55,0,0,1-1.48,3.68,11.36,11.36,0,0,1-3.8,2.76,14.49,14.49,0,0,1-4.64,1.32,6.31,6.31,0,0,0-.16,1.44,3.89,3.89,0,0,0,.72,2.4,2.86,2.86,0,0,0,2.44,1,7.78,7.78,0,0,0,4.92-2,16,16,0,0,0,4-5l0.48,0.36a14.47,14.47,0,0,1-4.44,5.72A9.55,9.55,0,0,1,180.84,41.76Zm-2-6.72a20.86,20.86,0,0,0,3.52-1.68,12.78,12.78,0,0,0,3.12-2.52,4.6,4.6,0,0,0,1.32-3.08,0.94,0.94,0,0,0-.2-0.68,0.72,0.72,0,0,0-.64-0.24,4.41,4.41,0,0,0-2.72,1.24A15,15,0,0,0,178.88,35Zm12.88,6.84a2.73,2.73,0,0,1-2.12-.88,3.3,3.3,0,0,1-.84-2.44,10.81,10.81,0,0,1,1.68-5.28,17.56,17.56,0,0,1,4.32-5,8.29,8.29,0,0,1,5.08-2,4,4,0,0,1,2.6.84,2.65,2.65,0,0,1,1,2.16A1.56,1.56,0,0,1,203,30.6a2.31,2.31,0,0,1-1.44.4,5.23,5.23,0,0,0,.2-1.4,2.49,2.49,0,0,0-.48-1.6,1.73,1.73,0,0,0-1.48-.64,5.51,5.51,0,0,0-3.72,2A17.6,17.6,0,0,0,192.84,34a11.36,11.36,0,0,0-1.28,4.68q0,1.56,1.08,1.56,1.6,0,3.76-2.52a76.56,76.56,0,0,0,4.64-6.2,3.23,3.23,0,0,1,1,.36,0.74,0.74,0,0,1,.56.64,2.6,2.6,0,0,1-.4,1q-0.36.68-.44,0.8a19.58,19.58,0,0,0-1.08,2.08,4,4,0,0,0-.4,1.64,2.45,2.45,0,0,0,.32,1.24,1.19,1.19,0,0,0,1,.52,4.9,4.9,0,0,0,2.92-1.64,20.71,20.71,0,0,0,3.48-4.68l0.4,0.4a15.13,15.13,0,0,1-2.16,3.8,11,11,0,0,1-2.84,2.56,5.66,5.66,0,0,1-2.92.92,2.76,2.76,0,0,1-2.16-.84,2.82,2.82,0,0,1-.72-2,6.35,6.35,0,0,1,.12-1.16,18.8,18.8,0,0,1-3.24,3.52A4.49,4.49,0,0,1,191.76,41.88Zm18.5-.68a2.54,2.54,0,0,1-2.16-1.2,4.71,4.71,0,0,1-.84-2.84,14,14,0,0,1,.6-3.64,20.51,20.51,0,0,1,1.48-3.8q0.88-1.64,1.44-1.64a1.6,1.6,0,0,1,.68.24,3.06,3.06,0,0,1,.8.56,20.81,20.81,0,0,0-1.76,3.8,12.3,12.3,0,0,0-.92,4.24,5.89,5.89,0,0,0,.28,1.8,1.17,1.17,0,0,0,1.16.88q1.4,0,3-2.56a62.64,62.64,0,0,0,3.6-6.56l0.64-1.32q1.92,0.36,1.92,1a2.86,2.86,0,0,1-.2.56q-0.16.44-.32,0.8-0.92,2-1.56,3.84a9.58,9.58,0,0,0-.6,3q0,1.6,1.32,1.6a4.07,4.07,0,0,0,2.08-.76A11.88,11.88,0,0,0,223.39,37a15.78,15.78,0,0,0,2.16-3.44l0.52,0.36a14.48,14.48,0,0,1-2.2,3.8A10.71,10.71,0,0,1,221,40.24a5.69,5.69,0,0,1-3,1q-2.8,0-2.8-3a9.09,9.09,0,0,1,.28-2,18.69,18.69,0,0,1-2.56,3.64A3.74,3.74,0,0,1,210.27,41.2Z" transform="translate(-1.84)" style="fill:#f7f7f7"/></svg>