<svg width="227" height="61" viewBox="0 0 227 61" fill="none" xmlns="http://www.w3.org/2000/svg">
<circle cx="91.5" cy="27.5" r="26.5" stroke="#C4E0EC" stroke-width="2"/>
<circle cx="91.5" cy="33.5" r="26.5" stroke="#C4E0EC" stroke-width="2"/>
<path d="M1.84 43.48C2.29333 41.8 3.28 38.4667 4.8 33.48C6.42667 28.2267 8.26667 22.1467 10.32 15.24C10.5067 14.5733 10.6 14.0267 10.6 13.6C10.6 12.9867 10.4 12.68 10 12.68C9.17333 12.68 8.4 13.08 7.68 13.88C6.98667 14.68 6.42667 15.64 6 16.76C5.57333 17.88 5.36 18.8933 5.36 19.8C5.36 20.3333 5.42667 20.8 5.56 21.2C4.73333 21.2 4.12 21 3.72 20.6C3.34667 20.1733 3.16 19.6133 3.16 18.92C3.16 17.7733 3.6 16.6 4.48 15.4C5.38667 14.1733 6.46667 13.1733 7.72 12.4C9 11.6 10.1467 11.2 11.16 11.2C12.1467 11.2 12.9333 11.76 13.52 12.88C14.1333 13.9733 14.5867 15.36 14.88 17.04C15.1733 18.6933 15.48 20.9067 15.8 23.68C16.36 28.6667 16.9467 33.1467 17.56 37.12C17.9067 34.8533 18.52 31.9867 19.4 28.52C20.3067 25.0533 21.2267 21.7867 22.16 18.72C23.12 15.6267 23.7333 13.7733 24 13.16C24.1867 12.7333 24.52 12.3067 25 11.88C25.48 11.4267 25.9867 11.2 26.52 11.2C25.56 13.7333 24.4533 17.2 23.2 21.6C21.9467 26 20.8667 30.2667 19.96 34.4C19.0533 38.5067 18.5867 41.5333 18.56 43.48C17.7067 43.48 17.0267 43.2267 16.52 42.72C16.0133 42.24 15.6533 41.4133 15.44 40.24C15.0933 38.3733 14.52 34.8267 13.72 29.6C12.9467 24.3467 12.3067 19.96 11.8 16.44C9.32 25.3733 7.58667 31.4667 6.6 34.72C5.61333 37.9733 4.77333 40.24 4.08 41.52C3.41333 42.8267 2.66667 43.48 1.84 43.48ZM26.5684 41.88C25.6884 41.88 24.9818 41.5867 24.4484 41C23.8884 40.44 23.6084 39.6267 23.6084 38.56C23.6084 36.9867 24.1684 35.2267 25.2884 33.28C26.4351 31.3333 27.8751 29.68 29.6084 28.32C31.3418 26.96 33.0351 26.28 34.6884 26.28C35.7284 26.28 36.5951 26.56 37.2884 27.12C37.9818 27.68 38.3284 28.4 38.3284 29.28C38.3284 29.8933 38.1551 30.3333 37.8084 30.6C37.4618 30.8667 36.9818 31 36.3684 31C36.5018 30.52 36.5684 30.0533 36.5684 29.6C36.5684 28.9333 36.4084 28.4 36.0884 28C35.7684 27.5733 35.2751 27.36 34.6084 27.36C33.4351 27.36 32.1951 28.0133 30.8884 29.32C29.6084 30.6267 28.5284 32.1867 27.6484 34C26.7951 35.8133 26.3684 37.3733 26.3684 38.68C26.3684 39.72 26.7284 40.24 27.4484 40.24C28.5151 40.24 29.7684 39.4 31.2084 37.72C32.6484 36.0133 34.1951 33.9467 35.8484 31.52C36.1951 31.5733 36.5418 31.6933 36.8884 31.88C37.2618 32.04 37.4484 32.2533 37.4484 32.52C37.4484 32.7333 37.3151 33.08 37.0484 33.56C36.8084 34.0133 36.6618 34.28 36.6084 34.36C36.1551 35.1333 35.7951 35.8267 35.5284 36.44C35.2618 37.0267 35.1284 37.5733 35.1284 38.08C35.1284 38.5333 35.2351 38.9467 35.4484 39.32C35.6884 39.6667 36.0351 39.84 36.4884 39.84C37.2618 39.84 38.2351 39.2933 39.4084 38.2C40.5818 37.08 41.7418 35.52 42.8884 33.52L43.2884 33.92C42.7284 35.3333 42.0084 36.6 41.1284 37.72C40.2484 38.8133 39.3018 39.6667 38.2884 40.28C37.2751 40.8933 36.3018 41.2 35.3684 41.2C34.4351 41.2 33.7151 40.92 33.2084 40.36C32.7284 39.8267 32.4884 39.1733 32.4884 38.4C32.4884 38.0533 32.5284 37.6667 32.6084 37.24C31.4084 38.84 30.3284 40.0133 29.3684 40.76C28.4351 41.5067 27.5018 41.88 26.5684 41.88ZM54.9903 40.8C54.0836 40.8 53.3903 40.56 52.9103 40.08C52.4303 39.6267 52.1903 39.0133 52.1903 38.24C52.1903 37.8933 52.2436 37.4933 52.3503 37.04C52.4836 36.56 52.617 36.0933 52.7503 35.64C52.9103 35.16 53.0436 34.6533 53.1503 34.12C53.2836 33.5867 53.3503 33.1067 53.3503 32.68C53.3503 31.3733 52.817 30.72 51.7503 30.72C50.737 30.72 49.6703 31.2533 48.5503 32.32C47.457 33.3867 46.4703 34.5733 45.5903 35.88C44.737 37.1867 43.7636 38.76 42.6703 40.6C42.217 40.6 41.8036 40.52 41.4303 40.36C41.057 40.2267 40.7636 40.0133 40.5503 39.72C40.5503 39.5867 40.7236 39.1067 41.0703 38.28C41.737 36.5733 42.2836 35.0267 42.7103 33.64C43.137 32.2267 43.3636 30.9733 43.3903 29.88C43.577 29.6667 43.8436 29.48 44.1903 29.32C44.537 29.1333 44.8836 29.04 45.2303 29.04C45.9503 29.04 46.3103 29.3867 46.3103 30.08C46.3103 30.48 46.1903 31.1867 45.9503 32.2C45.7103 33.1867 45.4036 34.24 45.0303 35.36C46.3103 33.3867 47.6703 31.72 49.1103 30.36C50.5503 29 51.9636 28.32 53.3503 28.32C54.337 28.32 55.0703 28.68 55.5503 29.4C56.057 30.0933 56.3103 30.9333 56.3103 31.92C56.3103 32.5067 56.2303 33.0667 56.0703 33.6C55.937 34.1333 55.7236 34.7467 55.4303 35.44C55.1903 36.0267 55.0036 36.5333 54.8703 36.96C54.737 37.3867 54.6703 37.8133 54.6703 38.24C54.6703 39.2533 55.0703 39.76 55.8703 39.76C56.777 39.76 57.7103 39.16 58.6703 37.96C59.657 36.76 60.5903 35.28 61.4703 33.52L61.9103 34.04C59.9903 38.5467 57.6836 40.8 54.9903 40.8ZM64.9831 42.24C63.6498 42.24 62.5698 41.8 61.7431 40.92C60.9165 40.04 60.5031 38.7733 60.5031 37.12C60.5031 35.3867 60.9431 33.6933 61.8231 32.04C62.7031 30.3867 63.8231 29.0533 65.1831 28.04C66.5698 27 67.9298 26.48 69.2631 26.48C70.2765 26.48 70.9965 26.7733 71.4231 27.36C71.8765 27.92 72.1031 28.6133 72.1031 29.44C72.1031 30.24 71.9165 30.9333 71.5431 31.52C71.1965 32.08 70.7165 32.36 70.1031 32.36C69.6498 32.36 69.2631 32.16 68.9431 31.76C69.3431 31.5733 69.6898 31.16 69.9831 30.52C70.2765 29.8533 70.4231 29.2133 70.4231 28.6C70.4231 28.2533 70.3565 28 70.2231 27.84C70.0898 27.68 69.8631 27.6 69.5431 27.6C68.6365 27.6 67.6631 28.1467 66.6231 29.24C65.6098 30.3067 64.7431 31.6133 64.0231 33.16C63.3298 34.7067 62.9831 36.12 62.9831 37.4C62.9831 38.36 63.2098 39.16 63.6631 39.8C64.1165 40.4133 64.8631 40.72 65.9031 40.72C67.5298 40.72 69.1298 40.0533 70.7031 38.72C72.3031 37.3867 73.5298 35.64 74.3831 33.48L74.9031 33.88C74.2898 35.48 73.4498 36.92 72.3831 38.2C71.3165 39.4533 70.1298 40.44 68.8231 41.16C67.5431 41.88 66.2631 42.24 64.9831 42.24ZM75.3528 51.2C74.6328 51.2 74.0328 51.0133 73.5528 50.64C73.0728 50.2667 72.8328 49.7467 72.8328 49.08C72.8328 48.0133 73.1661 47.0667 73.8328 46.24C74.5261 45.44 75.3661 44.7333 76.3528 44.12C77.3395 43.5333 78.7528 42.7733 80.5928 41.84C81.3928 39.7867 82.1395 37.3467 82.8328 34.52C81.8728 36.0933 80.9128 37.3333 79.9528 38.24C78.9928 39.1467 78.0061 39.6 76.9928 39.6C76.1395 39.6 75.3928 39.32 74.7528 38.76C74.1128 38.2 73.7928 37.4 73.7928 36.36C73.7928 35.4 74.0061 34.2267 74.4328 32.84C74.8595 31.4533 75.3528 30.24 75.9128 29.2C76.4728 28.16 76.9395 27.64 77.3128 27.64C77.5528 27.64 77.8995 27.7467 78.3528 27.96C78.8328 28.1467 79.0728 28.3467 79.0728 28.56C78.5395 29.3333 77.9661 30.5867 77.3528 32.32C76.7395 34.0267 76.4328 35.3867 76.4328 36.4C76.4328 37.4667 76.9128 38 77.8728 38C78.5928 38 79.4328 37.5067 80.3928 36.52C81.3795 35.5333 82.3128 34.32 83.1928 32.88C83.3261 32.4267 83.4595 31.8133 83.5928 31.04C83.6995 30.5333 83.9128 30.0667 84.2328 29.64C84.5795 29.2133 85.0461 29 85.6328 29C85.8728 29 86.1528 29.04 86.4728 29.12C86.4728 29.84 86.1661 31.32 85.5528 33.56C84.9661 35.8 84.2328 38.0533 83.3528 40.32C84.6861 39.7867 85.9395 38.96 87.1128 37.84C88.2861 36.6933 89.2328 35.2533 89.9528 33.52L90.4728 33.92C89.4861 37.04 86.9661 39.5333 82.9128 41.4C81.7395 44.28 80.4995 46.6267 79.1928 48.44C77.9128 50.28 76.6328 51.2 75.3528 51.2ZM75.1528 49.92C75.4461 49.92 75.8595 49.6667 76.3928 49.16C76.9261 48.68 77.5261 47.9067 78.1928 46.84C78.8595 45.7733 79.5261 44.4267 80.1928 42.8C78.7795 43.5467 77.6595 44.1733 76.8328 44.68C76.0328 45.2133 75.3661 45.8133 74.8328 46.48C74.3261 47.1467 74.0728 47.8933 74.0728 48.72C74.0728 48.9867 74.1661 49.2533 74.3528 49.52C74.5395 49.7867 74.8061 49.92 75.1528 49.92ZM104.77 43.48C103.277 43.48 102.157 43.2267 101.41 42.72C100.69 42.2133 100.33 41.4 100.33 40.28C100.33 40.2 100.397 40.16 100.53 40.16C100.637 40.16 100.957 40.2267 101.49 40.36C102.024 40.4933 102.957 40.56 104.29 40.56C107.25 40.56 109.944 40.12 112.37 39.24C114.824 38.3333 116.744 37.1467 118.13 35.68C119.517 34.2133 120.21 32.68 120.21 31.08C120.21 29.1333 119.25 27.8133 117.33 27.12C115.41 26.4 113.01 26.04 110.13 26.04L107.13 26.08C106.73 27.44 106.157 29.48 105.41 32.2C104.85 34.28 104.224 36.5333 103.53 38.96C102.864 38.96 102.304 38.7733 101.85 38.4C101.397 38.0267 101.17 37.5733 101.17 37.04C101.17 36.6933 101.25 36.2667 101.41 35.76C101.57 35.2533 101.677 34.92 101.73 34.76C102.557 31.9867 103.797 28.2933 105.45 23.68C107.13 19.04 108.717 15.2533 110.21 12.32C108.637 12.5867 107.09 13.1733 105.57 14.08C105.09 14.3467 104.797 14.48 104.69 14.48C104.477 14.48 104.21 14.3467 103.89 14.08C103.57 13.8133 103.41 13.5867 103.41 13.4C105.17 12.68 106.717 12.1333 108.05 11.76C109.41 11.3867 111.024 11.2 112.89 11.2C115.344 11.2 117.49 11.6533 119.33 12.56C121.197 13.44 122.13 15.1067 122.13 17.56C122.13 19.9333 121.237 21.72 119.45 22.92C117.69 24.12 115.53 24.9333 112.97 25.36C119.05 25.7333 122.09 27.88 122.09 31.8C122.09 34.2 121.117 36.2933 119.17 38.08C117.224 39.84 114.877 41.1733 112.13 42.08C109.41 43.0133 106.957 43.48 104.77 43.48ZM107.37 25.16C110.81 25.0533 113.73 24.3733 116.13 23.12C118.53 21.8667 119.73 19.9067 119.73 17.24C119.73 13.7733 117.477 12.04 112.97 12.04C112.624 12.04 112.37 12.0533 112.21 12.08C110.637 15.1467 109.024 19.5067 107.37 25.16ZM131.586 22.72C131.106 22.72 130.706 22.6133 130.386 22.4C130.093 22.16 129.946 21.8267 129.946 21.4C129.946 20.8667 130.266 20.3867 130.906 19.96C131.546 19.5333 132.2 19.32 132.866 19.32C133.746 19.32 134.186 19.7333 134.186 20.56C134.186 21.0667 133.906 21.56 133.346 22.04C132.813 22.4933 132.226 22.72 131.586 22.72ZM126.786 41.04C125.8 41.04 125.04 40.72 124.506 40.08C123.973 39.4667 123.706 38.6667 123.706 37.68C123.706 36.64 124 35.2 124.586 33.36C125.2 31.52 125.946 29.9067 126.826 28.52C127.733 27.1333 128.613 26.44 129.466 26.44C129.706 26.44 129.906 26.52 130.066 26.68C130.253 26.84 130.346 27.0533 130.346 27.32C130.346 27.6933 129.92 28.5867 129.066 30C128.186 31.4667 127.48 32.7867 126.946 33.96C126.44 35.1067 126.186 36.2 126.186 37.24C126.186 38.1733 126.333 38.8133 126.626 39.16C126.946 39.48 127.453 39.64 128.146 39.64C130.226 39.64 132.28 37.6 134.306 33.52L134.666 33.92C133.92 36.16 132.813 37.9067 131.346 39.16C129.906 40.4133 128.386 41.04 126.786 41.04ZM136.875 41.2C135.781 41.2 134.968 40.8267 134.435 40.08C133.928 39.3333 133.675 38.3333 133.675 37.08C133.675 34.68 134.501 31.4267 136.155 27.32C137.808 23.1867 139.648 19.4667 141.675 16.16C143.728 12.8533 145.208 11.2 146.115 11.2C146.488 11.2 146.795 11.5333 147.035 12.2C147.301 12.84 147.435 13.4933 147.435 14.16C147.435 15.3867 146.928 17.2 145.915 19.6C144.928 21.9733 143.621 24.3867 141.995 26.84C140.368 29.2933 138.635 31.28 136.795 32.8C136.448 34.3467 136.275 35.6933 136.275 36.84C136.275 38.8933 136.861 39.92 138.035 39.92C139.021 39.92 140.021 39.2933 141.035 38.04C142.075 36.7867 142.995 35.28 143.795 33.52L144.395 33.84C142.101 38.7467 139.595 41.2 136.875 41.2ZM137.155 31.44C138.621 29.9733 140.048 28.1333 141.435 25.92C142.848 23.68 143.995 21.5467 144.875 19.52C145.755 17.4667 146.195 15.9867 146.195 15.08C146.195 14.6533 146.101 14.44 145.915 14.44C145.541 14.44 144.768 15.36 143.595 17.2C142.448 19.0133 141.261 21.24 140.035 23.88C138.808 26.52 137.848 29.04 137.155 31.44ZM145.768 41.28C144.674 41.28 143.874 40.9467 143.368 40.28C142.861 39.6133 142.608 38.7333 142.608 37.64C142.608 36.5467 142.834 35.4 143.288 34.2C143.741 33 144.328 32 145.048 31.2C145.768 30.4 146.488 30 147.208 30C147.448 30 147.728 30.0667 148.048 30.2C147.728 30.4667 147.341 31.0533 146.888 31.96C146.434 32.8667 146.034 33.84 145.688 34.88C145.368 35.8933 145.208 36.72 145.208 37.36C145.208 38.88 145.688 39.64 146.648 39.64C147.208 39.64 147.874 39.3467 148.648 38.76C149.421 38.1733 150.181 37.4 150.928 36.44C150.181 35.8267 149.594 35.0267 149.168 34.04C148.768 33.0533 148.568 32.0267 148.568 30.96C148.568 29.5733 148.914 28.3867 149.608 27.4C150.328 26.4133 151.288 25.92 152.488 25.92C153.501 25.92 154.208 26.2 154.608 26.76C155.034 27.2933 155.248 28.04 155.248 29C155.248 30.0133 154.994 31.16 154.488 32.44C154.008 33.6933 153.368 34.92 152.568 36.12C153.048 36.3867 153.554 36.52 154.088 36.52C154.861 36.52 155.661 36.2933 156.488 35.84C157.314 35.36 157.941 34.6267 158.368 33.64L158.848 34.04C158.341 35.2133 157.621 36.08 156.688 36.64C155.754 37.2 154.794 37.48 153.808 37.48C153.088 37.48 152.448 37.3467 151.888 37.08C150.928 38.3333 149.901 39.3467 148.808 40.12C147.741 40.8933 146.728 41.28 145.768 41.28ZM151.648 35.4C152.341 34.36 152.901 33.3067 153.328 32.24C153.754 31.1467 153.968 30.1467 153.968 29.24C153.968 28.4933 153.848 27.9333 153.608 27.56C153.394 27.1867 153.114 27 152.768 27C152.394 27 152.008 27.1867 151.608 27.56C151.234 27.9067 150.914 28.4 150.648 29.04C150.408 29.6533 150.288 30.3333 150.288 31.08C150.288 31.9067 150.394 32.7067 150.608 33.48C150.848 34.2267 151.194 34.8667 151.648 35.4ZM159.977 41.2C159.204 41.2 158.511 40.9067 157.897 40.32C157.284 39.76 156.977 38.9333 156.977 37.84C156.977 36.3733 157.537 34.6667 158.657 32.72C159.777 30.7467 161.177 29.0667 162.857 27.68C164.537 26.2933 166.164 25.6 167.737 25.6C168.911 25.6 169.497 26.0133 169.497 26.84C169.497 26.9467 169.471 27.1333 169.417 27.4C169.151 27 168.644 26.8 167.897 26.8C166.564 26.8 165.271 27.44 164.017 28.72C162.764 29.9733 161.737 31.4533 160.937 33.16C160.164 34.8667 159.777 36.2667 159.777 37.36C159.777 37.9467 159.897 38.4133 160.137 38.76C160.404 39.1067 160.764 39.28 161.217 39.28C161.937 39.28 162.817 38.8267 163.857 37.92C164.897 36.9867 165.951 35.68 167.017 34C168.084 32.32 169.031 30.4133 169.857 28.28C171.937 22.8933 173.671 18.7067 175.057 15.72C176.471 12.7067 177.657 11.2 178.617 11.2C178.831 11.2 179.017 11.2933 179.177 11.48C179.337 11.64 179.417 11.8533 179.417 12.12C179.417 12.52 179.204 13.2133 178.777 14.2C178.351 15.16 177.657 16.6533 176.697 18.68C174.724 22.7867 173.151 26.3467 171.977 29.36C170.804 32.3467 170.217 34.96 170.217 37.2C170.217 38.08 170.257 38.68 170.337 39C170.444 39.2933 170.711 39.44 171.137 39.44C171.697 39.44 172.351 39.2 173.097 38.72C173.871 38.2133 174.631 37.52 175.377 36.64C176.124 35.7333 176.764 34.6933 177.297 33.52L177.777 33.88C177.271 35.2133 176.577 36.4267 175.697 37.52C174.817 38.6133 173.871 39.4667 172.857 40.08C171.871 40.72 170.924 41.04 170.017 41.04C169.111 41.04 168.444 40.7467 168.017 40.16C167.591 39.5733 167.377 38.8667 167.377 38.04C167.377 37.1333 167.631 35.7067 168.137 33.76C166.777 36 165.364 37.8 163.897 39.16C162.457 40.52 161.151 41.2 159.977 41.2ZM180.843 41.76C179.27 41.76 178.057 41.32 177.203 40.44C176.377 39.5867 175.963 38.48 175.963 37.12C175.963 35.5467 176.483 33.8533 177.523 32.04C178.563 30.2267 179.87 28.7067 181.443 27.48C183.043 26.2267 184.603 25.6 186.123 25.6C187.777 25.6 188.603 26.4133 188.603 28.04C188.603 29.3467 188.11 30.5733 187.123 31.72C186.137 32.84 184.87 33.76 183.323 34.48C181.777 35.2 180.23 35.64 178.683 35.8C178.577 36.2533 178.523 36.7333 178.523 37.24C178.523 38.2 178.763 39 179.243 39.64C179.723 40.28 180.537 40.6 181.683 40.6C183.31 40.6 184.95 39.92 186.603 38.56C188.257 37.2 189.603 35.52 190.643 33.52L191.123 33.88C190.057 36.2533 188.577 38.16 186.683 39.6C184.79 41.04 182.843 41.76 180.843 41.76ZM178.883 35.04C180.003 34.64 181.177 34.08 182.403 33.36C183.63 32.64 184.67 31.8 185.523 30.84C186.403 29.8533 186.843 28.8267 186.843 27.76C186.843 27.44 186.777 27.2133 186.643 27.08C186.537 26.92 186.323 26.84 186.003 26.84C185.177 26.84 184.27 27.2533 183.283 28.08C182.323 28.9067 181.43 29.96 180.603 31.24C179.803 32.52 179.23 33.7867 178.883 35.04ZM191.764 41.88C190.884 41.88 190.177 41.5867 189.644 41C189.084 40.44 188.804 39.6267 188.804 38.56C188.804 36.9867 189.364 35.2267 190.484 33.28C191.63 31.3333 193.07 29.68 194.804 28.32C196.537 26.96 198.23 26.28 199.884 26.28C200.924 26.28 201.79 26.56 202.484 27.12C203.177 27.68 203.524 28.4 203.524 29.28C203.524 29.8933 203.35 30.3333 203.004 30.6C202.657 30.8667 202.177 31 201.564 31C201.697 30.52 201.764 30.0533 201.764 29.6C201.764 28.9333 201.604 28.4 201.284 28C200.964 27.5733 200.47 27.36 199.804 27.36C198.63 27.36 197.39 28.0133 196.084 29.32C194.804 30.6267 193.724 32.1867 192.844 34C191.99 35.8133 191.564 37.3733 191.564 38.68C191.564 39.72 191.924 40.24 192.644 40.24C193.71 40.24 194.964 39.4 196.404 37.72C197.844 36.0133 199.39 33.9467 201.044 31.52C201.39 31.5733 201.737 31.6933 202.084 31.88C202.457 32.04 202.644 32.2533 202.644 32.52C202.644 32.7333 202.51 33.08 202.244 33.56C202.004 34.0133 201.857 34.28 201.804 34.36C201.35 35.1333 200.99 35.8267 200.724 36.44C200.457 37.0267 200.324 37.5733 200.324 38.08C200.324 38.5333 200.43 38.9467 200.644 39.32C200.884 39.6667 201.23 39.84 201.684 39.84C202.457 39.84 203.43 39.2933 204.604 38.2C205.777 37.08 206.937 35.52 208.084 33.52L208.484 33.92C207.924 35.3333 207.204 36.6 206.324 37.72C205.444 38.8133 204.497 39.6667 203.484 40.28C202.47 40.8933 201.497 41.2 200.564 41.2C199.63 41.2 198.91 40.92 198.404 40.36C197.924 39.8267 197.684 39.1733 197.684 38.4C197.684 38.0533 197.724 37.6667 197.804 37.24C196.604 38.84 195.524 40.0133 194.564 40.76C193.63 41.5067 192.697 41.88 191.764 41.88ZM210.266 41.2C209.386 41.2 208.666 40.8 208.106 40C207.546 39.2267 207.266 38.28 207.266 37.16C207.266 36.1733 207.466 34.96 207.866 33.52C208.292 32.0533 208.786 30.7867 209.346 29.72C209.932 28.6267 210.412 28.08 210.786 28.08C210.946 28.08 211.172 28.16 211.466 28.32C211.786 28.48 212.052 28.6667 212.266 28.88C211.706 29.76 211.119 31.0267 210.506 32.68C209.892 34.3067 209.586 35.72 209.586 36.92C209.586 37.5333 209.679 38.1333 209.866 38.72C210.079 39.3067 210.466 39.6 211.026 39.6C211.959 39.6 212.972 38.7467 214.066 37.04C215.186 35.3067 216.386 33.12 217.666 30.48L218.306 29.16C219.586 29.4 220.226 29.7467 220.226 30.2C220.226 30.2533 220.159 30.44 220.026 30.76C219.919 31.0533 219.812 31.32 219.706 31.56C219.092 32.92 218.572 34.2 218.146 35.4C217.746 36.5733 217.546 37.5733 217.546 38.4C217.546 39.4667 217.986 40 218.866 40C219.452 40 220.146 39.7467 220.946 39.24C221.746 38.7067 222.559 37.9467 223.386 36.96C224.212 35.9733 224.932 34.8267 225.546 33.52L226.066 33.88C225.506 35.2933 224.772 36.56 223.866 37.68C222.986 38.7733 222.026 39.6267 220.986 40.24C219.946 40.88 218.959 41.2 218.026 41.2C216.159 41.2 215.226 40.2133 215.226 38.24C215.226 37.7067 215.319 37.04 215.506 36.24C214.652 37.76 213.799 38.9733 212.946 39.88C212.092 40.76 211.199 41.2 210.266 41.2Z" fill="black"/>
</svg>
