<svg width="276" height="65" viewBox="0 0 276 65" fill="none" xmlns="http://www.w3.org/2000/svg">
<path fill-rule="evenodd" clip-rule="evenodd" d="M 23.3 23 C 37.7 29.6 111.1 44.1 157.2 40.2 C 218.9 35 237.4 22.4 246.3 14.5 C 243 13 239.5 11.9 236.4 11.5 C 234 11.2 231.8 11.3 230.3 11.8 C 227.1 13 223.3 11.6 222 8.7 C 220.7 5.7 222.3 2.5 225.6 1.3 C 229.3 0 233.6 -0.3 238.2 0.3 C 244.9 1.2 252.4 3.9 258.8 7.9 C 265.3 12 270.9 17.4 273.7 23.5 L 273.8 24 C 275.4 27.5 276 31.3 275.4 35.2 C 274.9 38.3 271.7 40.5 268.2 40 C 264.7 39.6 262.3 36.7 262.8 33.6 C 263 31.7 262.7 29.9 262 28 L 261.8 27.8 C 260.7 25.3 258.7 22.9 256.2 20.8 C 244.2 33.9 207.9 54.4 160.9 61.1 C 122.5 66.7 28.7 65.5 2.9 47.8 C -5.6 42 6.8 15.4 23.3 23 Z" fill="#3B3049"/>
</svg>
